#!OML:ASF F:\VICON\USERDATA\INSTALL\rory3\rory3.ASF
:FULLY-SPECIFIED
:DEGREES
1318
root 5.58055 17.4621 1.31059 20.0293 3.36651 1.0139
lowerback -10.4905 -1.55227 10.4529
upperback -14.1081 -2.4937 0.510502
thorax -9.9631 -2.28623 -5.28658
lowerneck -3.24047 19.5242 10.9054
upperneck 9.83829 25.5902 -0.132309
head 4.8349 12.9837 0.0144896
rclavicle 5.98342e-014 8.74653e-015
rhumerus -9.32496 -29.5884 30.0706
rradius 112.583
rwrist -63.9203
rhand -4.46139 -42.1165
rfingers 7.12502
rthumb 21.3108 -70.9647
lclavicle 5.98342e-014 8.74653e-015
lhumerus 23.4197 26.8686 -13.1554
lradius 32.6084
lwrist 56.2368
lhand -17.122 -13.2831
lfingers 7.12502
lthumb 9.11759 16.4998
rfemur -11.6159 10.8382 -9.06034
rtibia 10.5622
rfoot -17.4582 -21.1887
rtoes 43.6507
lfemur -19.3583 2.65908 -30.757
ltibia 16.171
lfoot -15.5479 1.01857
ltoes 8.68417
1319
root 5.58587 17.4606 1.31932 19.8266 3.29786 0.93138
lowerback -10.347 -1.53919 10.6093
upperback -14.0458 -2.46864 0.518223
thorax -9.98161 -2.28707 -5.36089
lowerneck -3.30082 19.5663 10.8735
upperneck 9.85099 25.6383 -0.0969553
head 4.84177 13.0072 0.0380207
rclavicle -5.34731e-014 1.59028e-015
rhumerus -9.24628 -29.6038 29.9528
rradius 112.556
rwrist -63.7332
rhand -4.40139 -42.0301
rfingers 7.12502
rthumb 21.3685 -70.8718
lclavicle -5.34731e-014 1.59028e-015
lhumerus 23.4205 26.9592 -13.1104
lradius 32.5513
lwrist 56.092
lhand -17.0233 -13.2833
lfingers 7.12502
lthumb 9.21287 16.4954
rfemur -11.3791 10.8456 -8.94035
rtibia 10.4872
rfoot -17.8277 -20.8182
rtoes 44.4899
lfemur -19.1487 2.82858 -30.7099
ltibia 16.2381
lfoot -15.6527 1.00945
ltoes 8.51631
1320
root 5.58706 17.4604 1.32365 19.8101 3.27553 0.926173
lowerback -10.3298 -1.52983 10.6145
upperback -14.0685 -2.45307 0.516019
thorax -10.0165 -2.28249 -5.36461
lowerneck -3.18083 19.5598 10.926
upperneck 9.72316 25.6467 -0.176499
head 4.80013 13.009 -0.00694949
rclavicle -4.65156e-014 -3.18055e-015
rhumerus -9.22493 -29.5281 29.9403
rradius 112.577
rwrist -63.578
rhand -4.66929 -42.0918
rfingers 7.12502
rthumb 21.1111 -70.9625
lclavicle -4.65156e-014 -3.18055e-015
lhumerus 23.5257 27.0757 -12.9547
lradius 32.5014
lwrist 55.9248
lhand -16.9347 -13.2879
lfingers 7.12502
lthumb 9.29835 16.4871
rfemur -11.2402 10.8577 -8.93595
rtibia 10.2653
rfoot -17.8264 -20.9109
rtoes 44.4993
lfemur -19.1736 2.87914 -30.7193
ltibia 16.3394
lfoot -15.7195 1.02476
ltoes 8.42111
1321
root 5.58684 17.4604 1.31803 19.9411 3.47461 0.970115
lowerback -10.4408 -1.57062 10.6183
upperback -14.1204 -2.51834 0.50027
thorax -10.0293 -2.31922 -5.38636
lowerneck -2.93614 19.5023 11.0598
upperneck 9.48418 25.612 -0.421968
head 4.73411 12.9844 -0.125473
rclavicle 2.98177e-014 -7.95139e-016
rhumerus -9.30555 -29.4284 30.0353
rradius 112.654
rwrist -63.6614
rhand -5.02646 -42.2168
rfingers 7.12502
rthumb 20.768 -71.1255
lclavicle 2.98177e-014 -7.95139e-016
lhumerus 23.6445 27.249 -12.8035
lradius 32.4802
lwrist 55.8198
lhand -16.6988 -13.1989
lfingers 7.12502
lthumb 9.52595 16.5658
rfemur -11.2265 10.7066 -8.92783
rtibia 10.1985
rfoot -18.5899 -20.4486
rtoes 45.4138
lfemur -19.3541 2.81006 -30.7378
ltibia 16.3836
lfoot -15.696 0.893895
ltoes 8.42684
1322
root 5.58349 17.4599 1.31521 19.9879 3.53135 0.964845
lowerback -10.5119 -1.60133 10.5959
upperback -14.1007 -2.56702 0.520773
thorax -9.9705 -2.33643 -5.35528
lowerneck -2.85366 19.5088 11.1004
upperneck 9.32223 25.6393 -0.559456
head 4.69464 12.9913 -0.180521
rclavicle 2.18663e-015 1.19271e-014
rhumerus -9.35417 -29.4268 30.0527
rradius 112.729
rwrist -63.772
rhand -5.10798 -42.1352
rfingers 7.12502
rthumb 20.6897 -71.0524
lclavicle 2.18663e-015 1.19271e-014
lhumerus 23.6176 27.3752 -12.8212
lradius 32.4585
lwrist 55.6798
lhand -16.2344 -13
lfingers 7.12502
lthumb 9.974 16.7437
rfemur -11.2688 10.7134 -8.89957
rtibia 10.2126
rfoot -19.5137 -19.7237
rtoes 46.5815
lfemur -19.4242 2.77677 -30.7092
ltibia 16.3859
lfoot -15.661 0.852446
ltoes 8.48429
1323
root 5.58272 17.4586 1.31801 19.9604 3.41876 0.982576
lowerback -10.526 -1.59002 10.5168
upperback -14.046 -2.55324 0.535033
thorax -9.88454 -2.31466 -5.29891
lowerneck -3.00519 19.5491 11.0525
upperneck 9.35997 25.6744 -0.521525
head 4.7206 13.0068 -0.145045
rclavicle 1.5704e-014 2.3059e-014
rhumerus -9.36307 -29.4621 30.0465
rradius 112.755
rwrist -63.7332
rhand -4.82426 -41.9972
rfingers 7.12502
rthumb 20.9623 -70.8844
lclavicle 1.5704e-014 2.3059e-014
lhumerus 23.5427 27.3844 -12.8977
lradius 32.4759
lwrist 55.6545
lhand -16.1939 -13.0428
lfingers 7.12502
lthumb 10.0131 16.6991
rfemur -11.3149 10.781 -8.95513
rtibia 10.2387
rfoot -19.33 -19.8194
rtoes 46.3449
lfemur -19.4032 2.89568 -30.7672
ltibia 16.3939
lfoot -15.6701 0.829894
ltoes 8.49561
1324
root 5.58526 17.4583 1.32082 19.9209 3.38841 0.987838
lowerback -10.5802 -1.5769 10.5273
upperback -13.9983 -2.54614 0.524334
thorax -9.79691 -2.30713 -5.3207
lowerneck -3.01461 19.5407 11.0772
upperneck 9.36803 25.6615 -0.534029
head 4.72867 13.0004 -0.150028
rclavicle 6.04305e-014 1.59028e-015
rhumerus -9.38693 -29.5259 30.0593
rradius 112.745
rwrist -63.6937
rhand -4.59831 -41.9435
rfingers 7.12502
rthumb 21.1793 -70.8066
lclavicle 6.04305e-014 1.59028e-015
lhumerus 23.4868 27.3727 -12.9732
lradius 32.5302
lwrist 55.7406
lhand -16.4414 -13.4093
lfingers 7.12502
lthumb 9.77428 16.3438
rfemur -11.2884 10.7656 -8.96144
rtibia 10.246
rfoot -18.295 -20.6052
rtoes 44.8829
lfemur -19.3523 2.94586 -30.7877
ltibia 16.4115
lfoot -15.7154 0.758741
ltoes 8.61167
1325
root 5.58418 17.4593 1.321 19.8865 3.3961 0.876853
lowerback -10.6481 -1.56824 10.6256
upperback -13.9914 -2.54557 0.554277
thorax -9.75814 -2.31257 -5.3453
lowerneck -2.70763 19.5188 11.1696
upperneck 9.19053 25.6692 -0.625616
head 4.64927 13.005 -0.224221
rclavicle 3.04141e-014 -3.97569e-015
rhumerus -9.35242 -29.5537 30.0258
rradius 112.764
rwrist -63.7861
rhand -4.80961 -41.9673
rfingers 7.12502
rthumb 20.9763 -70.853
lclavicle 3.04141e-014 -3.97569e-015
lhumerus 23.4428 27.339 -13.0371
lradius 32.5539
lwrist 55.723
lhand -16.5062 -13.5924
lfingers 7.12502
lthumb 9.71176 16.1637
rfemur -11.299 10.8339 -8.82828
rtibia 10.2591
rfoot -18.016 -20.8334
rtoes 44.436
lfemur -19.3086 2.81223 -30.6207
ltibia 16.4137
lfoot -15.7252 0.870394
ltoes 8.75324
1326
root 5.58242 17.4595 1.32092 19.8708 3.40786 0.796044
lowerback -10.6481 -1.56169 10.6826
upperback -14.0721 -2.53254 0.583263
thorax -9.85647 -2.31746 -5.34159
lowerneck -2.25438 19.478 11.2836
upperneck 8.99916 25.6694 -0.718409
head 4.54566 13.0088 -0.317466
rclavicle -5.50634e-014 -4.05521e-014
rhumerus -9.25472 -29.4024 30.0094
rradius 112.787
rwrist -63.8149
rhand -4.83009 -41.961
rfingers 7.12502
rthumb 20.9567 -70.8489
lclavicle -5.50634e-014 -4.05521e-014
lhumerus 23.5038 27.1859 -12.992
lradius 32.5454
lwrist 55.6642
lhand -16.4141 -13.4553
lfingers 7.12502
lthumb 9.8007 16.2966
rfemur -11.3258 10.9062 -8.7258
rtibia 10.3085
rfoot -18.7648 -20.2797
rtoes 45.4897
lfemur -19.294 2.74129 -30.5095
ltibia 16.4006
lfoot -15.7056 1.00608
ltoes 8.7665
1327
root 5.58005 17.4597 1.32372 19.8664 3.36152 0.813608
lowerback -10.6357 -1.54772 10.616
upperback -14.1229 -2.50603 0.589966
thorax -9.91204 -2.30164 -5.29489
lowerneck -2.24116 19.4467 11.2877
upperneck 9.14962 25.6282 -0.67023
head 4.58329 12.9936 -0.301012
rclavicle -5.76476e-015 2.54444e-014
rhumerus -9.25117 -29.263 30.1139
rradius 112.823
rwrist -63.8422
rhand -4.68955 -41.8796
rfingers 7.12502
rthumb 21.0917 -70.7524
lclavicle -5.76476e-015 2.54444e-014
lhumerus 23.5985 27.1319 -12.8752
lradius 32.5355
lwrist 55.6499
lhand -16.2205 -13.2835
lfingers 7.12502
lthumb 9.98745 16.4595
rfemur -11.3658 10.991 -8.74773
rtibia 10.3706
rfoot -18.6838 -20.3939
rtoes 45.2749
lfemur -19.2916 2.81435 -30.5409
ltibia 16.3917
lfoot -15.7518 0.992277
ltoes 8.73594
1328
root 5.5777 17.4594 1.32619 19.8415 3.31061 0.903779
lowerback -10.6311 -1.55152 10.4874
upperback -14.1158 -2.50697 0.568916
thorax -9.89404 -2.28959 -5.24715
lowerneck -2.44997 19.4492 11.2571
upperneck 9.39314 25.6044 -0.583059
head 4.67588 12.9853 -0.240654
rclavicle 4.55217e-014 7.95139e-015
rhumerus -9.29165 -29.192 30.1903
rradius 112.878
rwrist -64.0047
rhand -5.17488 -41.8435
rfingers 7.12502
rthumb 20.6254 -70.7677
lclavicle 4.55217e-014 7.95139e-015
lhumerus 23.5537 27.0483 -12.9312
lradius 32.5979
lwrist 55.8233
lhand -16.0244 -13.1369
lfingers 7.12502
lthumb 10.1766 16.597
rfemur -11.3797 11.046 -8.85137
rtibia 10.4235
rfoot -17.876 -21.0606
rtoes 44.0046
lfemur -19.2479 2.86516 -30.6425
ltibia 16.373
lfoot -15.7861 0.930387
ltoes 8.65904
